# xmcd
# 
# Track frame offsets:
#     150
#     17747
#     37304
#     57528
#     70430
#     86089
#     102487
#     124642
#     150797
#     170471
#     193215
#     219595
#     239337
#     260697
#     286911
#     311562
# 
# Disc length: 4413
# 
# Revision: 0
# Processed by: cddbd v1.5.2PL0 Copyright (c) Steve Scherf et al.
# Submitted via: fre:ac v1.0.31
# 
DISCID=ee113b10
DTITLE=Various Artist - DAEMON X MACHINA ORIGINAL SOUND TRACK DISC 1 [Z-C1]
DYEAR=2019
DGENRE=Soundtrack
TTITLE0=Rio Hamamoto - DAEMON X MACHINA
TTITLE1=Yoshinori Hirai - Hangar
TTITLE2=Syuri Misaki - Testing Ground
TTITLE3=Hiroki Hashimoto - Lab
TTITLE4=Mitsuhiro Kitadani - Ice Cream
TTITLE5=Mitsuhiro Kitadani - Distant Memory
TTITLE6=Yusuke Yamauchi - Briefing
TTITLE7=Rio Hamamoto - Overkill
TTITLE8=Yusuke Yamauchi - Battle Dance
TTITLE9=Mitsuhiro Kitadani - Destiny
TTITLE10=Rio Hamamoto - Grand War
TTITLE11=Yusuke Yamauchi - Mercenary Life
TTITLE12=Junichi Nakatsuru - Tears of the Hound
TTITLE13=Mitsuhiro Kitadani - Vow
TTITLE14=Yusuke Yamauchi - Arms of Immortal
TTITLE15=Mitsuhiro Kitadani - DAEMON X MACHINA Resolve
EXTD=
EXTT0=
EXTT1=
EXTT2=
EXTT3=
EXTT4=
EXTT5=
EXTT6=
EXTT7=
EXTT8=
EXTT9=
EXTT10=
EXTT11=
EXTT12=
EXTT13=
EXTT14=
EXTT15=
PLAYORDER=
